# xmcd CD database file
#
# Track frame offsets:
#	150
#	12560
#	23825
#	43442
#	60240
#	73127
#	90795
#	108062
#	124915
#	142997
#	159552
#	177730
#	195840
#
# Disc length: 2831 seconds
#
# Revision: 0
# Processed by: cddbd v1.5.2PL0 Copyright (c) Steve Scherf et al.
# Submitted via: CDex 1.70beta2
#
DISCID=a90b0d0d
DTITLE=Veronika Rodriguez - Paris Is You
DYEAR=1900
DGENRE=Jazz
TTITLE0=Out of Nowhere
TTITLE1=A New Beginning
TTITLE2=Paris is You
TTITLE3=A Night in Tunisia
TTITLE4=The Way You Look Tonight
TTITLE5=Death of a Dream
TTITLE6=Lullaby of Birdland
TTITLE7=Chega de Saudade
TTITLE8=Elie and Sacha, a Twin Song
TTITLE9=Dat Dere
TTITLE10=Perdido
TTITLE11=The Days of Wine and Roses
TTITLE12=The Blueness of the Blues
EXTD=
EXTT0=
EXTT1=
EXTT2=
EXTT3=
EXTT4=
EXTT5=
EXTT6=
EXTT7=
EXTT8=
EXTT9=
EXTT10=
EXTT11=
EXTT12=
PLAYORDER=
